<svg xmlns="http://www.w3.org/2000/svg" viewBox="0 0 240 320" role="img" aria-labelledby="title"><title id="title">PROFILE FULL REPORT · PHI OS report cover</title><desc>Decorative product cover; not a customer chart or a semantic reading.</desc><rect x="15" y="9" width="210" height="302" rx="12" fill="#fcfaf5" stroke="#827b94" stroke-width="2"/><path d="M37 34h166M37 275h166" stroke="#bca879"/><circle cx="120" cy="113" r="58" fill="none" stroke="#bca879"/><path d="M120 113L168.00 113.00" stroke="#827b94" opacity=".55"/><circle cx="168.00" cy="113.00" r="8" fill="#fcfaf5" stroke="#827b94"/><path d="M120 113L153.94 146.94" stroke="#827b94" opacity=".55"/><circle cx="153.94" cy="146.94" r="8" fill="#fcfaf5" stroke="#827b94"/><path d="M120 113L120.00 161.00" stroke="#827b94" opacity=".55"/><circle cx="120.00" cy="161.00" r="8" fill="#fcfaf5" stroke="#827b94"/><path d="M120 113L86.06 146.94" stroke="#827b94" opacity=".55"/><circle cx="86.06" cy="146.94" r="8" fill="#fcfaf5" stroke="#827b94"/><path d="M120 113L72.00 113.00" stroke="#827b94" opacity=".55"/><circle cx="72.00" cy="113.00" r="8" fill="#fcfaf5" stroke="#827b94"/><path d="M120 113L86.06 79.06" stroke="#827b94" opacity=".55"/><circle cx="86.06" cy="79.06" r="8" fill="#fcfaf5" stroke="#827b94"/><path d="M120 113L120.00 65.00" stroke="#827b94" opacity=".55"/><circle cx="120.00" cy="65.00" r="8" fill="#fcfaf5" stroke="#827b94"/><path d="M120 113L153.94 79.06" stroke="#827b94" opacity=".55"/><circle cx="153.94" cy="79.06" r="8" fill="#fcfaf5" stroke="#827b94"/><circle cx="120" cy="113" r="22" fill="#827b94"/><text x="120" y="123" fill="#fcfaf5" text-anchor="middle" font-family="Georgia,serif" font-size="30">Φ</text><text x="120" y="211" fill="#827b94" text-anchor="middle" font-family="Arial,sans-serif" font-size="17" letter-spacing="1">PROFILE</text><text x="120" y="239" fill="#293638" text-anchor="middle" font-family="Arial,sans-serif" font-size="12" letter-spacing="1">PHI OS · REPORTS</text></svg>
